<?xml version="1.0" ?><!DOCTYPE svg  PUBLIC '-//W3C//DTD SVG 1.1//EN'  'http://www.w3.org/Graphics/SVG/1.1/DTD/svg11.dtd'><svg enable-background="new 0 0 128 128" id="Слой_1" version="1.1" viewBox="0 0 128 128" xml:space="preserve" xmlns="http://www.w3.org/2000/svg" xmlns:xlink="http://www.w3.org/1999/xlink"><g><circle cx="64" cy="64" fill="#D8D8D8" r="62"/><g><g><path d="M29.6,48c0.9-0.5,0.4-1.8-0.6-1.7C18.8,47.6,9.6,51.9,2.3,58.3c-0.4,3.9-0.3,7.9,0,11.8     c0.8-0.9,1.6-1.7,2.5-2.5C12.8,59.6,21.2,53,29.6,48z" fill="#BFE6F4"/></g><g><path d="M53.6,49.1c-0.7,0.2-1.5,0.4-2.3,0.7c-12.8,4.3-26.5,13.3-38.7,25.5c-2.6,2.6-5.1,5.3-7.4,8.1     c2.9,8.9,7.9,17.3,15,24.4c15.7,15.7,37.9,21.2,58.1,16.5c5.2-8,8.2-17.5,8.2-27.7C86.4,74.9,72.8,56.4,53.6,49.1z" fill="#BFE6F4"/></g><g><path d="M56,48.9c-0.4-0.2-0.8-0.2-1.2-0.1c-1,0.3-2,0.6-3.1,0.9c20.3,7,34.7,26.8,33.5,49.8     c-0.5,9.3-3.6,18-8.6,25.2c1.1-0.2,2.2-0.5,3.2-0.8c4.3-6.9,7-14.9,7.6-23.4C89.1,77.5,75.7,57.3,56,48.9z" fill="#62345B"/></g><g><path d="M32,46.6c0.9-0.5,0.4-1.8-0.5-1.7c-11,0.9-21,5.2-29,11.8c-0.1,1.1-0.2,2.2-0.3,3.3     c7.7-7.1,17.7-11.7,28.7-12.8C31.2,47,31.6,46.8,32,46.6z" fill="#62345B"/></g><g><path d="M48.8,124.1c2.7,0.4,5.4,0.9,8,1.5c3.1,0.4,6.3,0.5,9.4,0.4c-7.7-2.8-16.9-4.6-26.5-4.9     C42.6,122.3,45.7,123.3,48.8,124.1z" fill="#62345B"/></g><g><path d="M6.8,65.6C5.2,65,3.5,64.3,2,63.6c0,0.8,0,1.7,0,2.5C3,66.6,4,67,5,67.3C5.6,66.7,6.2,66.1,6.8,65.6z" fill="#62345B"/></g><g><path d="M72.8,61.9c-9.5,5.2-23,8.2-37.2,8.2c-5.5,0-10.9-0.5-16-1.3c-0.7,0.6-1.5,1.3-2.2,1.9     c5.8,1.1,11.9,1.7,18.2,1.7c14.5,0,28.5-3.1,38.3-8.5c0.6-0.3,0.8-1,0.4-1.6C74,61.8,73.3,61.6,72.8,61.9z" fill="#62345B"/></g><g><path d="M31.7,45.3c-4.1,1.2-8,4.3-11.2,8.8c3.6-2.7,7.3-5.1,10.9-7.2C32.7,46.1,31.7,45.3,31.7,45.3z" fill="#62345B"/></g><g><path d="M11.4,96.7c0-8.2,1-16,2.7-22.8c-0.5,0.5-1,1-1.5,1.5c-0.5,0.5-1,1-1.5,1.5c-1.1,5-1.7,10.4-1.9,16     C9.8,94.2,10.6,95.5,11.4,96.7C11.4,96.7,11.4,96.7,11.4,96.7z" fill="#62345B"/><path d="M48.2,50.9c-0.7,0.3-1.4,0.6-2.2,0.9c8.2,8,13.8,25.1,13.8,44.8c0,10.7-1.7,20.6-4.5,28.7     c0.7,0.1,1.5,0.2,2.3,0.3c2.9-8.3,4.5-18.3,4.5-29C62.2,76.9,56.5,59.7,48.2,50.9z" fill="#62345B"/></g><g><path d="M87.6,96.7c0-0.6-0.5-1.1-1.1-1.1H10.6c0.5,0.8,0.9,1.5,1.4,2.3h74.4C87.1,97.8,87.6,97.3,87.6,96.7z" fill="#62345B"/></g><g><path d="M34.5,57.9v60.7c0.8,0.4,1.5,0.8,2.3,1.2V56.5C36,56.9,35.2,57.4,34.5,57.9z" fill="#62345B"/></g><g><g><path d="M14.2,64.6c-0.8,0.7-1.5,1.3-2.3,2c-0.5,0.5-0.5,1.3-0.1,1.8c0.2,0.3,0.6,0.4,0.9,0.4      c0.3,0,0.6-0.1,0.8-0.3c0.7-0.7,1.5-1.3,2.2-2c0.5-0.5,0.6-1.2,0.1-1.8C15.5,64.2,14.7,64.1,14.2,64.6z" fill="#62345B"/><path d="M81.4,46.6c-0.6-0.6-1.3-1.2-2-1.7c-0.5-0.4-1.3-0.3-1.8,0.2c-0.4,0.6-0.3,1.3,0.2,1.8      c0.6,0.5,1.2,0.9,1.7,1.5c0.1,0.1,0.3,0.3,0.4,0.4c0.2,0.3,0.6,0.4,0.9,0.4c0.3,0,0.6-0.1,0.9-0.3c0.5-0.5,0.5-1.3,0.1-1.8      C81.7,46.9,81.6,46.8,81.4,46.6z" fill="#62345B"/><path d="M86.1,60.9c-0.7,0-1.2,0.6-1.2,1.3c0,0.4,0,0.7,0,1.1c0,0.6,0,1.2,0,1.8c0,0.7,0.5,1.3,1.2,1.3      c0,0,0,0,0.1,0c0.7,0,1.2-0.5,1.2-1.2c0-0.7,0.1-1.3,0.1-2c0-0.4,0-0.8,0-1.1C87.4,61.4,86.8,60.9,86.1,60.9z" fill="#62345B"/><path d="M64.1,40.6C64.1,40.6,64.1,40.6,64.1,40.6c-1,0-2.1,0.1-3.1,0.2c-0.7,0.1-1.2,0.7-1.1,1.4      c0.1,0.6,0.6,1.1,1.2,1.1c0,0,0.1,0,0.1,0c1-0.1,2-0.2,2.9-0.2c0.7,0,1.2-0.6,1.2-1.3C65.3,41.1,64.7,40.6,64.1,40.6z" fill="#62345B"/><path d="M85.6,57.2c0.7-0.2,1.1-0.9,0.9-1.5c-0.3-1-0.6-2.1-1-3c-0.3-0.6-1-0.9-1.6-0.7c-0.6,0.3-0.9,1-0.7,1.6      c0.4,0.8,0.7,1.7,0.9,2.7c0.2,0.6,0.7,0.9,1.2,0.9C85.4,57.2,85.5,57.2,85.6,57.2z" fill="#62345B"/><path d="M73.6,41.9c-1-0.3-2-0.6-3.1-0.8c-0.7-0.1-1.3,0.3-1.5,1c-0.1,0.7,0.3,1.3,1,1.5c1,0.2,1.9,0.4,2.8,0.7      c0.1,0,0.3,0.1,0.4,0.1c0.5,0,1-0.3,1.2-0.9C74.6,42.8,74.2,42.1,73.6,41.9z" fill="#62345B"/><path d="M54.6,41.9c-1,0.2-2,0.5-3,0.8c-0.7,0.2-1,0.9-0.9,1.5c0.2,0.5,0.7,0.9,1.2,0.9c0.1,0,0.2,0,0.3,0      c1-0.3,1.9-0.5,2.9-0.7c0.7-0.2,1.1-0.8,0.9-1.5S55.3,41.7,54.6,41.9z" fill="#62345B"/><path d="M7.4,71c-0.7,0.7-1.4,1.5-2.1,2.2c-0.5,0.5-0.5,1.3,0,1.8c0.2,0.2,0.6,0.3,0.9,0.3      c0.3,0,0.7-0.1,0.9-0.4c0.7-0.7,1.4-1.4,2.1-2.1c0.5-0.5,0.5-1.3,0-1.8C8.7,70.5,7.9,70.5,7.4,71z" fill="#62345B"/><path d="M29,53.3c-0.8,0.5-1.7,1.1-2.5,1.7c-0.6,0.4-0.7,1.2-0.3,1.7c0.2,0.4,0.6,0.5,1,0.5      c0.2,0,0.5-0.1,0.7-0.2c0.8-0.6,1.7-1.1,2.5-1.6c0.6-0.4,0.7-1.1,0.4-1.7C30.4,53.1,29.6,52.9,29,53.3z" fill="#62345B"/><path d="M21.4,58.7c-0.8,0.6-1.6,1.2-2.4,1.9c-0.5,0.4-0.6,1.2-0.2,1.8c0.2,0.3,0.6,0.5,1,0.5      c0.3,0,0.5-0.1,0.8-0.3c0.8-0.6,1.6-1.2,2.4-1.8c0.5-0.4,0.7-1.2,0.2-1.8S21.9,58.3,21.4,58.7z" fill="#62345B"/><path d="M45.7,44.7c-0.9,0.4-1.9,0.8-2.8,1.2c-0.6,0.3-0.9,1-0.6,1.6c0.2,0.5,0.7,0.8,1.1,0.8      c0.2,0,0.3,0,0.5-0.1c0.9-0.4,1.8-0.8,2.7-1.1c0.6-0.3,1-1,0.7-1.6C47,44.8,46.3,44.4,45.7,44.7z" fill="#62345B"/><path d="M37.1,48.6c-0.9,0.5-1.8,1-2.7,1.5c-0.6,0.3-0.8,1.1-0.5,1.7c0.2,0.4,0.7,0.6,1.1,0.6      c0.2,0,0.4-0.1,0.6-0.2c0.9-0.5,1.7-1,2.6-1.4c0.6-0.3,0.8-1.1,0.5-1.7C38.5,48.5,37.7,48.3,37.1,48.6z" fill="#62345B"/></g><g><path d="M85.6,70.1c-0.7-0.1-1.3,0.3-1.5,1c-0.1,0.5-0.2,1-0.3,1.4c-0.2,0.7,0.3,1.3,0.9,1.5c0.1,0,0.2,0,0.3,0      c0.6,0,1.1-0.4,1.2-1c0.1-0.5,0.2-1,0.3-1.5C86.7,70.9,86.3,70.3,85.6,70.1z" fill="#62345B"/></g></g><g><circle cx="80.5" cy="47.5" fill="#FFFFFF" r="8.5"/></g><g><path d="M80.5,37.8c-2.6,0-5,1-6.9,2.8c-3.8,3.8-3.8,10,0,13.7c1.8,1.8,4.3,2.8,6.9,2.8c2.6,0,5-1,6.9-2.8     s2.8-4.3,2.8-6.9c0-2.6-1-5-2.8-6.9C85.5,38.8,83.1,37.8,80.5,37.8z M85.6,52.6c-1.4,1.4-3.2,2.1-5.1,2.1c-1.9,0-3.7-0.8-5.1-2.1     c-2.8-2.8-2.8-7.4,0-10.2c1.4-1.4,3.2-2.1,5.1-2.1c1.9,0,3.7,0.8,5.1,2.1c1.4,1.4,2.1,3.2,2.1,5.1C87.7,49.4,87,51.2,85.6,52.6z" fill="#62345B"/></g></g></g></svg>