<svg width="110" height="15" viewBox="0 0 110 15" fill="none" xmlns="http://www.w3.org/2000/svg">
<path d="M12.6882 5.49219H9.88849C9.83736 5.12997 9.73295 4.80824 9.57528 4.52699C9.41761 4.24148 9.2152 3.99858 8.96804 3.7983C8.72088 3.59801 8.43537 3.4446 8.11151 3.33807C7.7919 3.23153 7.4446 3.17827 7.0696 3.17827C6.39205 3.17827 5.80185 3.34659 5.29901 3.68324C4.79617 4.01562 4.40625 4.50142 4.12926 5.14062C3.85227 5.77557 3.71378 6.54687 3.71378 7.45455C3.71378 8.38778 3.85227 9.17187 4.12926 9.80682C4.41051 10.4418 4.80256 10.9212 5.3054 11.245C5.80824 11.5689 6.38992 11.7308 7.05043 11.7308C7.42117 11.7308 7.7642 11.6818 8.07955 11.5838C8.39915 11.4858 8.68253 11.343 8.92969 11.1555C9.17685 10.9638 9.38139 10.7315 9.54332 10.4588C9.70952 10.1861 9.82457 9.875 9.88849 9.52557L12.6882 9.53835C12.6158 10.1392 12.4347 10.7188 12.1449 11.277C11.8594 11.831 11.4737 12.3274 10.9879 12.7663C10.5064 13.201 9.93111 13.5462 9.26207 13.8018C8.5973 14.0533 7.84517 14.179 7.00568 14.179C5.83807 14.179 4.79403 13.9148 3.87358 13.3864C2.95739 12.858 2.23295 12.093 1.70028 11.0916C1.17188 10.0902 0.90767 8.87784 0.90767 7.45455C0.90767 6.02699 1.17614 4.8125 1.71307 3.81108C2.25 2.80966 2.97869 2.04687 3.89915 1.52273C4.8196 0.994318 5.85511 0.730113 7.00568 0.730113C7.7642 0.730113 8.46733 0.836647 9.11506 1.04972C9.76705 1.26278 10.3445 1.57386 10.8473 1.98295C11.3501 2.38778 11.7592 2.88423 12.0746 3.4723C12.3942 4.06037 12.5987 4.73366 12.6882 5.49219ZM19.0579 14.1918C18.065 14.1918 17.2063 13.9808 16.4819 13.5589C15.7617 13.1328 15.2056 12.5405 14.8136 11.782C14.4215 11.0192 14.2255 10.1349 14.2255 9.12926C14.2255 8.11506 14.4215 7.22869 14.8136 6.47017C15.2056 5.70739 15.7617 5.11506 16.4819 4.69318C17.2063 4.26705 18.065 4.05398 19.0579 4.05398C20.0508 4.05398 20.9073 4.26705 21.6275 4.69318C22.3519 5.11506 22.9102 5.70739 23.3022 6.47017C23.6942 7.22869 23.8903 8.11506 23.8903 9.12926C23.8903 10.1349 23.6942 11.0192 23.3022 11.782C22.9102 12.5405 22.3519 13.1328 21.6275 13.5589C20.9073 13.9808 20.0508 14.1918 19.0579 14.1918ZM19.0707 12.0824C19.5224 12.0824 19.8995 11.9545 20.2021 11.6989C20.5046 11.4389 20.7326 11.0852 20.886 10.6378C21.0437 10.1903 21.1225 9.68111 21.1225 9.11009C21.1225 8.53906 21.0437 8.02983 20.886 7.58239C20.7326 7.13494 20.5046 6.78125 20.2021 6.52131C19.8995 6.26136 19.5224 6.13139 19.0707 6.13139C18.6147 6.13139 18.2312 6.26136 17.9201 6.52131C17.6133 6.78125 17.381 7.13494 17.2234 7.58239C17.07 8.02983 16.9933 8.53906 16.9933 9.11009C16.9933 9.68111 17.07 10.1903 17.2234 10.6378C17.381 11.0852 17.6133 11.4389 17.9201 11.6989C18.2312 11.9545 18.6147 12.0824 19.0707 12.0824ZM29.2788 14.1598C28.533 14.1598 27.8576 13.968 27.2525 13.5845C26.6516 13.1967 26.1744 12.6278 25.8207 11.8778C25.4712 11.1236 25.2965 10.1989 25.2965 9.10369C25.2965 7.97869 25.4776 7.04332 25.8398 6.29759C26.2021 5.54759 26.6836 4.98722 27.2844 4.61648C27.8896 4.24148 28.5522 4.05398 29.2724 4.05398C29.8221 4.05398 30.2802 4.14773 30.6467 4.33523C31.0174 4.51847 31.3157 4.74858 31.5415 5.02557C31.7717 5.2983 31.9464 5.56676 32.0657 5.83097H32.1488V0.909091H34.8654V14H32.1808V12.4276H32.0657C31.9379 12.7003 31.7567 12.9709 31.5224 13.2393C31.2923 13.5036 30.9918 13.723 30.6211 13.8977C30.2546 14.0724 29.8072 14.1598 29.2788 14.1598ZM30.1417 11.9929C30.5806 11.9929 30.9513 11.8736 31.2539 11.6349C31.5607 11.392 31.7951 11.0533 31.957 10.6186C32.1232 10.1839 32.2063 9.67472 32.2063 9.09091C32.2063 8.5071 32.1254 8 31.9634 7.5696C31.8015 7.1392 31.5671 6.80682 31.2603 6.57244C30.9535 6.33807 30.5806 6.22088 30.1417 6.22088C29.6942 6.22088 29.3171 6.34233 29.0103 6.58523C28.7035 6.82812 28.4712 7.16477 28.3136 7.59517C28.1559 8.02557 28.0771 8.52415 28.0771 9.09091C28.0771 9.66193 28.1559 10.1669 28.3136 10.6058C28.4755 11.0405 28.7077 11.3814 29.0103 11.6286C29.3171 11.8714 29.6942 11.9929 30.1417 11.9929ZM41.5787 14.1918C40.5687 14.1918 39.6994 13.9872 38.9707 13.5781C38.2463 13.1648 37.688 12.581 37.296 11.8267C36.9039 11.0682 36.7079 10.1712 36.7079 9.13565C36.7079 8.12571 36.9039 7.23935 37.296 6.47656C37.688 5.71378 38.2399 5.11932 38.9515 4.69318C39.6674 4.26705 40.5069 4.05398 41.47 4.05398C42.1177 4.05398 42.7207 4.15838 43.2789 4.36719C43.8414 4.57173 44.3315 4.88068 44.7491 5.29403C45.171 5.70739 45.4991 6.22727 45.7335 6.85369C45.9679 7.47585 46.0851 8.20455 46.0851 9.03977V9.78764H37.7946V8.10014H43.5218C43.5218 7.7081 43.4366 7.3608 43.2662 7.05824C43.0957 6.75568 42.8592 6.51918 42.5566 6.34872C42.2583 6.17401 41.911 6.08665 41.5147 6.08665C41.1014 6.08665 40.7349 6.18253 40.4153 6.37429C40.1 6.56179 39.8528 6.81534 39.6738 7.13494C39.4949 7.45028 39.4032 7.80185 39.399 8.18963V9.79403C39.399 10.2798 39.4885 10.6996 39.6674 11.0533C39.8507 11.407 40.1085 11.6797 40.4409 11.8714C40.7733 12.0632 41.1674 12.1591 41.6234 12.1591C41.926 12.1591 42.2029 12.1165 42.4544 12.0312C42.7058 11.946 42.921 11.8182 43.1 11.6477C43.2789 11.4773 43.4153 11.2685 43.5091 11.0213L46.0275 11.1875C45.8997 11.7926 45.6376 12.321 45.2413 12.7727C44.8493 13.2202 44.3422 13.5696 43.72 13.821C43.1021 14.0682 42.3883 14.1918 41.5787 14.1918ZM59.4636 5.49219H56.6639C56.6127 5.12997 56.5083 4.80824 56.3507 4.52699C56.193 4.24148 55.9906 3.99858 55.7434 3.7983C55.4963 3.59801 55.2108 3.4446 54.8869 3.33807C54.5673 3.23153 54.22 3.17827 53.845 3.17827C53.1674 3.17827 52.5772 3.34659 52.0744 3.68324C51.5716 4.01562 51.1816 4.50142 50.9047 5.14062C50.6277 5.77557 50.4892 6.54687 50.4892 7.45455C50.4892 8.38778 50.6277 9.17187 50.9047 9.80682C51.1859 10.4418 51.5779 10.9212 52.0808 11.245C52.5836 11.5689 53.1653 11.7308 53.8258 11.7308C54.1966 11.7308 54.5396 11.6818 54.8549 11.5838C55.1745 11.4858 55.4579 11.343 55.7051 11.1555C55.9522 10.9638 56.1568 10.7315 56.3187 10.4588C56.4849 10.1861 56.6 9.875 56.6639 9.52557L59.4636 9.53835C59.3912 10.1392 59.2101 10.7188 58.9203 11.277C58.6348 11.831 58.2491 12.3274 57.7633 12.7663C57.2818 13.201 56.7065 13.5462 56.0375 13.8018C55.3727 14.0533 54.6206 14.179 53.7811 14.179C52.6135 14.179 51.5694 13.9148 50.649 13.3864C49.7328 12.858 49.0083 12.093 48.4757 11.0916C47.9473 10.0902 47.6831 8.87784 47.6831 7.45455C47.6831 6.02699 47.9515 4.8125 48.4885 3.81108C49.0254 2.80966 49.7541 2.04687 50.6745 1.52273C51.595 0.994318 52.6305 0.730113 53.7811 0.730113C54.5396 0.730113 55.2427 0.836647 55.8904 1.04972C56.5424 1.26278 57.1199 1.57386 57.6227 1.98295C58.1255 2.38778 58.5346 2.88423 58.85 3.4723C59.1696 4.06037 59.3741 4.73366 59.4636 5.49219ZM61.3972 14V4.18182H64.0371V5.89489H64.1394C64.3184 5.28551 64.6188 4.82528 65.0407 4.5142C65.4625 4.19886 65.9483 4.04119 66.498 4.04119C66.6344 4.04119 66.7814 4.04972 66.9391 4.06676C67.0968 4.08381 67.2353 4.10724 67.3546 4.13707V6.55327C67.2267 6.51491 67.0499 6.48082 66.824 6.45099C66.5982 6.42116 66.3915 6.40625 66.204 6.40625C65.8034 6.40625 65.4455 6.49361 65.1301 6.66832C64.8191 6.83878 64.5719 7.07741 64.3887 7.38423C64.2097 7.69105 64.1202 8.04474 64.1202 8.44531V14H61.3972ZM71.2809 14.1854C70.6545 14.1854 70.0962 14.0767 69.6062 13.8594C69.1161 13.6378 68.7283 13.3118 68.4428 12.8814C68.1616 12.4467 68.021 11.9055 68.021 11.2578C68.021 10.7124 68.1211 10.2543 68.3214 9.88352C68.5217 9.51278 68.7944 9.21449 69.1396 8.98864C69.4847 8.76278 69.8768 8.59233 70.3157 8.47727C70.7589 8.36222 71.2234 8.28125 71.7092 8.23438C72.2802 8.17472 72.7404 8.11932 73.0898 8.06818C73.4393 8.01278 73.6928 7.93182 73.8505 7.82528C74.0082 7.71875 74.087 7.56108 74.087 7.35227V7.31392C74.087 6.90909 73.9592 6.59588 73.7035 6.37429C73.4521 6.1527 73.0941 6.0419 72.6296 6.0419C72.1396 6.0419 71.7496 6.15057 71.4599 6.3679C71.1701 6.58097 70.9783 6.84943 70.8846 7.1733L68.3661 6.96875C68.494 6.37216 68.7454 5.85653 69.1204 5.42188C69.4954 4.98295 69.979 4.64631 70.5714 4.41193C71.168 4.1733 71.8583 4.05398 72.6424 4.05398C73.1879 4.05398 73.7099 4.1179 74.2085 4.24574C74.7113 4.37358 75.1566 4.57173 75.5444 4.8402C75.9364 5.10866 76.2454 5.45384 76.4712 5.87571C76.6971 6.29332 76.81 6.79403 76.81 7.37784V14H74.2276V12.6385H74.1509C73.9933 12.9453 73.7823 13.2159 73.5181 13.4503C73.2539 13.6804 72.9364 13.8615 72.5657 13.9936C72.195 14.1214 71.7667 14.1854 71.2809 14.1854ZM72.0607 12.3061C72.4613 12.3061 72.815 12.2273 73.1218 12.0696C73.4286 11.9077 73.6694 11.6903 73.8441 11.4176C74.0188 11.1449 74.1062 10.8359 74.1062 10.4908V9.44886C74.021 9.50426 73.9038 9.5554 73.7546 9.60227C73.6097 9.64489 73.4457 9.68537 73.2624 9.72372C73.0792 9.75781 72.896 9.78977 72.7127 9.8196C72.5295 9.84517 72.3633 9.86861 72.2141 9.88991C71.8945 9.93679 71.6154 10.0114 71.3768 10.1136C71.1381 10.2159 70.9528 10.3544 70.8207 10.5291C70.6886 10.6996 70.6225 10.9126 70.6225 11.1683C70.6225 11.5391 70.7567 11.8224 71.0252 12.0185C71.2979 12.2102 71.6431 12.3061 72.0607 12.3061ZM84.2024 4.18182V6.22727H78.1428V4.18182H84.2024ZM79.5298 14V3.4723C79.5298 2.76065 79.6683 2.17045 79.9453 1.7017C80.2266 1.23295 80.6101 0.881391 81.0959 0.647016C81.5817 0.412641 82.1335 0.295454 82.7514 0.295454C83.169 0.295454 83.5504 0.327414 83.8956 0.391335C84.245 0.455255 84.505 0.512784 84.6754 0.56392L84.1896 2.60938C84.0831 2.57528 83.951 2.54332 83.7933 2.51349C83.6399 2.48366 83.4822 2.46875 83.3203 2.46875C82.9197 2.46875 82.6406 2.5625 82.483 2.75C82.3253 2.93324 82.2464 3.19105 82.2464 3.52344V14H79.5298ZM91.0882 4.18182V6.22727H85.1756V4.18182H91.0882ZM86.5179 1.82955H89.2409V10.983C89.2409 11.2344 89.2793 11.4304 89.356 11.571C89.4327 11.7074 89.5392 11.8033 89.6756 11.8587C89.8162 11.9141 89.9782 11.9418 90.1614 11.9418C90.2892 11.9418 90.4171 11.9311 90.5449 11.9098C90.6728 11.8842 90.7708 11.8651 90.839 11.8523L91.2672 13.8786C91.1309 13.9212 90.9391 13.9702 90.6919 14.0256C90.4448 14.0852 90.1444 14.1214 89.7907 14.1342C89.1344 14.1598 88.5591 14.0724 88.0648 13.8722C87.5748 13.6719 87.1934 13.3608 86.9206 12.9389C86.6479 12.517 86.5137 11.9844 86.5179 11.3409V1.82955ZM97.231 14.1918C96.2211 14.1918 95.3517 13.9872 94.623 13.5781C93.8986 13.1648 93.3404 12.581 92.9483 11.8267C92.5563 11.0682 92.3603 10.1712 92.3603 9.13565C92.3603 8.12571 92.5563 7.23935 92.9483 6.47656C93.3404 5.71378 93.8922 5.11932 94.6039 4.69318C95.3198 4.26705 96.1593 4.05398 97.1223 4.05398C97.7701 4.05398 98.373 4.15838 98.9313 4.36719C99.4938 4.57173 99.9838 4.88068 100.401 5.29403C100.823 5.70739 101.151 6.22727 101.386 6.85369C101.62 7.47585 101.737 8.20455 101.737 9.03977V9.78764H93.4469V8.10014H99.1742C99.1742 7.7081 99.089 7.3608 98.9185 7.05824C98.748 6.75568 98.5115 6.51918 98.209 6.34872C97.9107 6.17401 97.5634 6.08665 97.1671 6.08665C96.7537 6.08665 96.3873 6.18253 96.0676 6.37429C95.7523 6.56179 95.5051 6.81534 95.3262 7.13494C95.1472 7.45028 95.0556 7.80185 95.0513 8.18963V9.79403C95.0513 10.2798 95.1408 10.6996 95.3198 11.0533C95.503 11.407 95.7608 11.6797 96.0932 11.8714C96.4256 12.0632 96.8198 12.1591 97.2757 12.1591C97.5783 12.1591 97.8553 12.1165 98.1067 12.0312C98.3581 11.946 98.5733 11.8182 98.7523 11.6477C98.9313 11.4773 99.0676 11.2685 99.1614 11.0213L101.68 11.1875C101.552 11.7926 101.29 12.321 100.894 12.7727C100.502 13.2202 99.9945 13.5696 99.3723 13.821C98.7544 14.0682 98.0407 14.1918 97.231 14.1918ZM103.514 14V4.18182H106.154V5.89489H106.257C106.436 5.28551 106.736 4.82528 107.158 4.5142C107.58 4.19886 108.066 4.04119 108.615 4.04119C108.752 4.04119 108.899 4.04972 109.056 4.06676C109.214 4.08381 109.352 4.10724 109.472 4.13707V6.55327C109.344 6.51491 109.167 6.48082 108.941 6.45099C108.715 6.42116 108.509 6.40625 108.321 6.40625C107.921 6.40625 107.563 6.49361 107.247 6.66832C106.936 6.83878 106.689 7.07741 106.506 7.38423C106.327 7.69105 106.237 8.04474 106.237 8.44531V14H103.514Z" fill="white"/>
</svg>
