<svg width="114" height="91" viewBox="0 0 114 91" fill="none" xmlns="http://www.w3.org/2000/svg">
<path d="M71.1849 38.0076C74.5277 58.619 64.3178 76.951 48.9715 79.4399C33.6251 81.9288 18.1448 67.7633 14.802 47.1518C11.4592 26.5404 21.6691 8.20838 37.0154 5.71949C52.3618 3.23061 67.8421 17.3961 71.1849 38.0076Z" stroke="#6E86FF" stroke-width="2"/>
<path d="M64.6832 38.6814C65.9565 46.5325 64.7415 53.9846 61.7959 59.6793C58.8503 65.3741 54.2145 69.2528 48.6358 70.1576C43.057 71.0624 37.433 68.8476 32.8385 64.3756C28.244 59.9038 24.7362 53.2177 23.4629 45.3666C22.1896 37.5155 23.4045 30.0635 26.3501 24.3688C29.2958 18.6739 33.9315 14.7952 39.5103 13.8904C45.0891 12.9857 50.7131 15.2005 55.3076 19.6724C59.902 24.1443 63.4099 30.8304 64.6832 38.6814Z" stroke="#6E86FF" stroke-width="2"/>
<ellipse cx="46.0925" cy="42.3399" rx="11.0297" ry="14.872" transform="rotate(-9.21208 46.0925 42.3399)" fill="#6E86FF"/>
<path d="M20.7478 75.9373C40.6655 95.1082 62.8241 83.9044 67.5547 71.8292C65.4481 83.874 51.1752 90.7077 39.2961 90.9999C26.2251 90.9999 9.91737 80.1696 5.4358 70.3351C-11.056 34.1453 14.067 8.67302 26.5987 5.10449C3.07066 16.1838 -0.658998 55.3331 20.7478 75.9373Z" fill="#6E86FF"/>
<path d="M45.8945 39.089L81.3732 16.4053L88.4689 11.9509" stroke="#6E86FF" stroke-width="2" stroke-linecap="round"/>
<path d="M80.501 14.5652L81.3255 8.9116C81.3548 8.71063 81.4827 8.53767 81.6663 8.45079L95.8778 1.72471C96.4196 1.4683 96.9654 2.06925 96.6583 2.58396L93.5661 7.76543C93.3377 8.14818 93.5862 8.63832 94.0299 8.68029L100.585 9.30036C101.154 9.35415 101.34 10.0923 100.864 10.4091L88.7111 18.5113C88.5575 18.6136 88.3657 18.6406 88.1899 18.5844L81.3724 16.4054" stroke="#6E86FF" stroke-width="2" stroke-linecap="round"/>
<path d="M47.2638 41.7037L91.6761 25.7971L99.5568 22.9537" stroke="#6E86FF" stroke-width="2" stroke-linecap="round"/>
<path d="M91.2158 23.8133L93.2238 18.4644C93.2952 18.2742 93.457 18.1324 93.6548 18.0866L108.972 14.5368C109.556 14.4015 109.961 15.1048 109.552 15.5424L105.428 19.9477C105.124 20.2731 105.262 20.8049 105.687 20.9403L111.96 22.9402C112.504 23.1137 112.529 23.8745 111.997 24.083L98.3989 29.4152C98.2271 29.4825 98.0339 29.468 97.8741 29.3757L91.6759 25.7967" stroke="#6E86FF" stroke-width="2" stroke-linecap="round"/>
<path d="M81.9238 36.59L84.6 32.1301C84.7039 31.9568 84.8873 31.8467 85.089 31.8363L99.0051 31.1215C99.6034 31.0908 99.8795 31.8537 99.4 32.2129L95.2028 35.3575C94.8483 35.6231 94.8887 36.1667 95.2785 36.377L100.274 39.0713C100.774 39.3409 100.662 40.0879 100.106 40.2L87.3455 42.7701C87.1615 42.8071 86.9706 42.7569 86.8287 42.634L81.991 38.4457" stroke="#6E86FF" stroke-width="2" stroke-linecap="round"/>
<path d="M48.01 44.3168L81.9912 38.4448L89.4409 37.1575" stroke="#6E86FF" stroke-width="2" stroke-linecap="round"/>
</svg>
