<svg width="126" height="118" viewBox="0 0 126 118" fill="none" xmlns="http://www.w3.org/2000/svg">
<path d="M72.0479 30.8425H89.9225C92.0986 30.8425 96.0675 28.8593 94.7409 20.8991C93.342 12.5052 100.016 12.5751 102.823 13.593C104.274 14.1116 106.74 16.2989 104.999 20.8991C102.823 26.6492 104.222 31.1584 108.73 31.1584H122.895C123.999 31.1584 124.895 32.0538 124.895 33.1584V84.623C124.895 85.7352 123.989 86.6339 122.877 86.6249C118.488 86.5891 108.303 86.5214 106.243 86.6425C103.601 86.798 104.059 89.6813 105.621 93.3261C107.953 98.7662 105.543 105.404 97.6941 104.051C93.1866 103.274 91.3214 98.4553 93.1866 93.3261C95.0518 88.1968 92.8757 86.6425 90.8551 86.6425C86.7498 86.6425 77.1464 86.5907 73.0534 86.6425" stroke="#6E86FF" stroke-width="2" stroke-linecap="round"/>
<path d="M18.7086 85.4193V77.3843V66.2343C18.7086 63.5265 19.0919 61.1637 15.8323 60.9779C12.5727 60.7921 11.0205 64.4822 5.43259 63.2079C2.48349 62.5354 3.03451e-06 59.5443 0 56.0401C-5.24132e-06 49.9872 6.56927 46.3351 12.8831 50.3058C18.7086 53.9693 18.7086 47.1201 18.7086 44.8901V31.5986C18.7086 30.4941 19.604 29.5986 20.7086 29.5986H40.7496C45.0957 29.9172 42.457 34.8551 41.2153 37.8815C38.7318 43.9343 42.0948 47.3324 44.4748 48.2351C52.8566 50.3058 54.8745 41.3858 52.0805 37.8815C48.2604 33.09 49.2866 30.0765 51.1492 30.0765H70.2626C71.4246 30.0765 72.3615 31.0625 72.3508 32.2244C72.3219 35.3445 72.4142 40.6298 72.4142 45.8458C72.4142 54.1286 79.8646 51.4208 79.8646 51.5801C79.8646 51.7393 91.0288 48.6058 91.9717 57.3143C92.5925 63.0486 86.539 66.7121 79.8646 64.6413C74.5251 62.9847 73.6559 64.96 73.6559 66.7121V85.4193C73.6559 86.5238 72.7605 87.4193 71.6559 87.4193H50.8759C50.1781 87.4193 49.5174 87.0603 49.2069 86.4353C47.0103 82.0127 49.5078 79.7957 50.994 76.11C52.8566 71.4908 50.8209 67.6438 47.7344 66.7121C43.6987 65.4939 36.5587 67.6679 39.5079 76.11C41.7821 82.62 41.6809 87.4193 37.9557 87.4193H20.7086C19.604 87.4193 18.7086 86.5238 18.7086 85.4193Z" fill="#6E86FF"/>
<path d="M74.4512 104.206C75.4356 105.916 77.4665 109.615 77.7152 110.734" stroke="#6E86FF" stroke-width="2" stroke-linecap="round"/>
<path d="M70.5656 105.138C70.0475 106.537 69.7885 110.703 72.8971 116.174" stroke="#6E86FF" stroke-width="2" stroke-linecap="round"/>
<path d="M64.66 104.206C62.6394 106.071 58.5049 110.423 58.1318 112.91" stroke="#6E86FF" stroke-width="2" stroke-linecap="round"/>
<path d="M71.1877 12.968C73.2083 11.1028 77.3428 6.75075 77.7158 4.26384" stroke="#6E86FF" stroke-width="2" stroke-linecap="round"/>
<path d="M65.282 12.0356C65.8001 10.6368 66.0592 6.47119 62.9505 0.999986" stroke="#6E86FF" stroke-width="2" stroke-linecap="round"/>
<path d="M61.3955 12.968C60.4111 11.2583 58.3801 7.55899 58.1314 6.43988" stroke="#6E86FF" stroke-width="2" stroke-linecap="round"/>
</svg>
