<svg width="127" height="110" viewBox="0 0 127 110" fill="none" xmlns="http://www.w3.org/2000/svg">
<path d="M53.2578 92.2103C54.5553 74.2611 52.4793 39.3574 33.7948 43.3365C15.1103 47.3156 14.3318 69.7919 16.2781 80.5326C18.0081 86.804 27.9126 83.9062 19.9544 63.6646" stroke="#6E86FF" stroke-width="2" stroke-linecap="round"/>
<path d="M13.4671 61.502C8.20485 61.3579 -4.08446 66.8211 3.30306 85.2902C12.8183 109.079 61.6921 122.702 75.965 85.2902" stroke="#6E86FF" stroke-width="2" stroke-linecap="round"/>
<path d="M88.7237 73.8288C85.0474 69.5037 80.9385 73.8288 77.0459 69.5037V80.4117C77.7379 82.1418 79.3634 80.4117 80.2897 79.6677L88.7237 73.8288Z" fill="#6E86FF"/>
<path d="M96.7252 67.9896L84.9521 76.3989C81.6428 78.7627 77.0459 76.3971 77.0459 72.3303V56.3118" stroke="#6E86FF" stroke-width="2" stroke-linecap="round"/>
<path d="M85.9121 51.3383L99.9687 23.0088" stroke="#6E86FF" stroke-width="2" stroke-linecap="round"/>
<path d="M107.322 23.4412L91.3193 56.0958" stroke="#6E86FF" stroke-width="2" stroke-linecap="round"/>
<path d="M112.512 29.929L98.6719 57.8259" stroke="#6E86FF" stroke-width="2" stroke-linecap="round"/>
<path d="M94.5627 20.4138L78.451 53.2491C78.0722 54.021 78.7985 54.9401 79.6579 54.9145C81.9509 54.8462 84.6251 55.6065 85.4473 58.6353C85.6531 59.3933 86.5584 59.8708 87.2839 59.5698C89.2972 58.7346 91.7069 58.6581 92.2878 61.8157C92.4456 62.6733 93.5234 63.2291 94.3073 62.8471C95.3392 62.3443 96.4361 62.103 97.2728 62.5494C98.2203 63.0549 100.219 63.5412 100.693 62.5773L116.621 30.1453" stroke="#6E86FF" stroke-width="2" stroke-linecap="round"/>
<path d="M114.458 0.301789C107.192 -0.909243 103.789 1.81558 102.996 3.32937L99.2324 10.6783C98.8842 11.3581 99.3938 12.1714 100.157 12.1975C106.012 12.3975 115.77 14.5395 119.932 21.0612C120.394 21.7845 121.544 21.811 121.928 21.0435L122.243 20.4136L126.394 11.9037C126.506 11.6746 126.528 11.4126 126.444 11.172C125.27 7.80726 121.455 1.46791 114.458 0.301789Z" fill="#6E86FF"/>
<path d="M120.73 23.2248L118.391 27.6277C117.948 28.4624 116.49 28.3251 116.022 27.5038C113.849 23.6897 108.258 18.8417 97.216 18.2982C96.4856 18.2622 96.0071 17.4956 96.3236 16.8362L98.2396 12.8445" stroke="#6E86FF" stroke-width="2" stroke-linecap="round"/>
<path d="M99.5371 15.656C102.493 15.2235 110.09 16.0021 116.838 22.5762" stroke="#6E86FF" stroke-width="2" stroke-linecap="round"/>
</svg>
