<svg width="56" height="56" viewBox="0 0 56 56" fill="none" xmlns="http://www.w3.org/2000/svg">
<g clip-path="url(#clip0_83_65)">
<path d="M56 10.0513H0V45.9487H56V10.0513Z" fill="#0E4C96"/>
<path d="M45.3913 35.9886C45.3913 38.9764 42.9698 41.3991 39.9809 41.3991H10.6074V20.0128C10.6074 17.0243 13.0293 14.6016 16.0182 14.6016L45.391 14.6016L45.391 35.9885L45.3913 35.9886Z" fill="white"/>
<path d="M35.8165 28.4695C36.6554 28.4877 37.4992 28.4325 38.3348 28.4983C39.1811 28.6561 39.3851 29.9372 38.6332 30.3569C38.1205 30.6334 37.5108 30.4598 36.9547 30.5086H35.8166L35.8165 28.4695ZM38.8199 26.1617C39.0063 26.8196 38.3721 27.4103 37.7383 27.3197H35.8165C35.8298 26.6993 35.7901 26.0259 35.836 25.4381C36.606 25.4598 37.3831 25.3939 38.1485 25.4725C38.4774 25.5552 38.7526 25.8256 38.8199 26.1617ZM43.4455 16.4048C43.4813 17.6613 43.4506 18.9841 43.4609 20.2661C43.4584 25.4781 43.4661 30.69 43.4569 35.9023C43.4232 37.8556 41.6921 39.5527 39.7523 39.5916C37.8105 39.5996 35.8685 39.5928 33.9267 39.595V31.7155C36.0425 31.7045 38.1596 31.7376 40.2746 31.6989C41.2558 31.6372 42.3302 30.9899 42.376 29.9102C42.4916 28.8259 41.4691 28.0757 40.4984 27.9573C40.1252 27.9476 40.1363 27.8484 40.4984 27.8053C41.424 27.6052 42.1511 26.647 41.8787 25.6874C41.6464 24.6781 40.531 24.2875 39.6031 24.2894C37.7112 24.2765 35.8188 24.2876 33.9268 24.2839C33.9392 22.8129 33.9014 21.3403 33.9474 19.8704C34.0972 17.9523 35.8719 16.3706 37.7846 16.4048L43.4455 16.4048Z" fill="url(#paint0_linear_83_65)"/>
<path d="M12.5463 20.0696C12.5947 18.1194 14.3332 16.436 16.2707 16.4075C18.2051 16.4016 20.1398 16.4067 22.0744 16.4049C22.0691 22.93 22.085 29.4558 22.0663 35.9805C21.9918 37.9072 20.2722 39.5584 18.3561 39.5924C16.4179 39.5995 14.4795 39.5934 12.5412 39.5954V31.4503C14.4239 31.895 16.3982 32.0844 18.3188 31.7892C19.467 31.6044 20.7231 31.0408 21.1118 29.8498C21.3979 28.8309 21.2368 27.7587 21.2793 26.713V24.2846H17.9554C17.9405 25.8906 17.986 27.4995 17.9314 29.1038C17.8418 30.0898 16.8655 30.7163 15.9355 30.6829C14.782 30.6951 12.4967 29.8472 12.4967 29.8472C12.4909 26.8377 12.5301 23.0692 12.5463 20.0702V20.0696Z" fill="url(#paint1_linear_83_65)"/>
<path d="M23.3134 25.2639C23.1387 25.301 23.2783 24.6679 23.2335 24.4278C23.2454 22.9093 23.2086 21.3892 23.2538 19.8718C23.4034 17.9456 25.1917 16.3599 27.112 16.405H32.767C32.7618 22.93 32.7776 29.4559 32.7591 35.9806C32.6845 37.9071 30.9648 39.5583 29.0486 39.5924C27.1104 39.5996 25.1719 39.5935 23.2335 39.5955V30.6714C24.5574 31.7575 26.3565 31.9266 28.0059 31.9296C29.2491 31.9291 30.4852 31.7376 31.6925 31.4507V29.8158C30.3318 30.4939 28.7323 30.9247 27.2238 30.5351C26.1717 30.273 25.4078 29.2563 25.4249 28.1704C25.3029 27.0412 25.9651 25.8489 27.0748 25.5132C28.4525 25.0818 29.9543 25.4117 31.2458 25.9724C31.5225 26.1174 31.8033 26.297 31.6925 25.8345V24.5494C29.5327 24.0356 27.234 23.8464 25.0638 24.4055C24.4357 24.5828 23.8238 24.8515 23.3134 25.264V25.2639Z" fill="url(#paint2_linear_83_65)"/>
</g>
<defs>
<linearGradient id="paint0_linear_83_65" x1="33.8898" y1="28.0424" x2="43.4292" y2="28.0424" gradientUnits="userSpaceOnUse">
<stop stop-color="#007B40"/>
<stop offset="1" stop-color="#55B330"/>
</linearGradient>
<linearGradient id="paint1_linear_83_65" x1="12.5639" y1="28.0424" x2="22.0956" y2="28.0424" gradientUnits="userSpaceOnUse">
<stop stop-color="#1D2970"/>
<stop offset="1" stop-color="#006DBA"/>
</linearGradient>
<linearGradient id="paint2_linear_83_65" x1="23.2413" y1="28.2969" x2="32.7776" y2="28.2969" gradientUnits="userSpaceOnUse">
<stop stop-color="#6E2B2F"/>
<stop offset="1" stop-color="#E30138"/>
</linearGradient>
<clipPath id="clip0_83_65">
<rect width="56" height="56" fill="white"/>
</clipPath>
</defs>
</svg>
