<svg width="56" height="56" viewBox="0 0 56 56" fill="none" xmlns="http://www.w3.org/2000/svg">
<g clip-path="url(#clip0_83_66)">
<path d="M56 10.0513H0V45.9487H56V10.0513Z" fill="#16366F"/>
<path d="M32.236 28C32.236 35.1179 26.4659 40.8871 19.3481 40.8871C12.2304 40.8871 6.46094 35.1176 6.46094 28C6.46094 20.8827 12.2305 15.1128 19.3481 15.1128C26.4656 15.1128 32.236 20.8829 32.236 28Z" fill="#D9222A"/>
<path d="M36.6504 15.1125C33.3205 15.1125 30.2863 16.3759 27.9991 18.4486C27.5331 18.8714 27.0982 19.3271 26.6978 19.8124H29.3015C29.658 20.2458 29.9861 20.7018 30.284 21.1774H25.7154C25.4406 21.6169 25.1927 22.0726 24.9729 22.5421H31.0261C31.2338 22.9861 31.416 23.4417 31.5717 23.9065H24.4273C24.2772 24.3541 24.1522 24.8097 24.0527 25.2712H31.9459C32.1389 26.168 32.2362 27.0827 32.236 28C32.236 29.4312 32.0024 30.8081 31.5716 32.0938H24.4271C24.5825 32.5589 24.7646 33.0145 24.9724 33.4586H31.026C30.806 33.9281 30.5579 34.3839 30.2831 34.8236H25.7151C26.0134 35.2995 26.3419 35.7554 26.6977 36.1874H29.3008C28.9009 36.6736 28.4658 37.1298 27.9992 37.5524C30.2865 39.6249 33.3204 40.8876 36.6504 40.8876C43.768 40.8875 49.5383 35.118 49.5383 28.0004C49.5383 20.8833 43.7682 15.1132 36.6504 15.1132" fill="#EE9F2D"/>
<path d="M47.822 35.1838C47.822 34.954 48.0081 34.7673 48.2381 34.7673C48.4681 34.7673 48.6542 34.954 48.6542 35.1838C48.6542 35.4135 48.4681 35.6001 48.2381 35.6001C48.0082 35.6 47.8219 35.4136 47.822 35.1838ZM48.2381 35.5003C48.4129 35.5002 48.5545 35.3585 48.5546 35.1838C48.5546 35.0091 48.413 34.8676 48.2384 34.8676H48.2381C48.0637 34.8673 47.9222 35.0085 47.9219 35.1829V35.1839C47.9217 35.3585 48.0631 35.5002 48.2377 35.5003C48.2378 35.5003 48.238 35.5003 48.2381 35.5003ZM48.1819 35.3667H48.0966V35.001H48.2509C48.2832 35.001 48.3161 35.001 48.3446 35.0192C48.3742 35.0392 48.391 35.0745 48.391 35.111C48.391 35.1519 48.3668 35.1902 48.3276 35.2052L48.3948 35.3667H48.3004L48.2444 35.222H48.182L48.1819 35.3667ZM48.1819 35.1592H48.2291C48.2468 35.1592 48.2653 35.1607 48.2812 35.152C48.2952 35.1431 48.3024 35.1263 48.3024 35.1101C48.3024 35.0961 48.2938 35.08 48.2818 35.0731C48.2669 35.0637 48.2433 35.0658 48.2273 35.0658H48.1819V35.1592ZM16.3409 29.4111C16.194 29.3941 16.1294 29.3895 16.0286 29.3895C15.2356 29.3895 14.8341 29.6615 14.8341 30.1985C14.8341 30.5295 15.0301 30.7403 15.3357 30.7403C15.9056 30.7403 16.3164 30.1975 16.3409 29.4111ZM17.3583 31.7801H16.1991L16.2257 31.229C15.8721 31.6645 15.4003 31.8715 14.7593 31.8715C14.001 31.8715 13.4811 31.2792 13.4811 30.4192C13.4811 29.1252 14.3854 28.3702 15.9377 28.3702C16.0962 28.3702 16.2996 28.3845 16.5078 28.411C16.5512 28.2358 16.5626 28.1607 16.5626 28.0664C16.5626 27.714 16.3187 27.5826 15.6651 27.5826C14.9807 27.5749 14.4162 27.7457 14.1844 27.822C14.199 27.7337 14.3782 26.626 14.3782 26.626C15.0755 26.4217 15.5353 26.3448 16.0528 26.3448C17.2542 26.3448 17.8905 26.8842 17.8893 27.9036C17.8916 28.1768 17.8465 28.5139 17.7759 28.9569C17.6544 29.7274 17.3939 31.3777 17.3583 31.7801ZM12.8956 31.7801H11.4965L12.2979 26.7546L10.5085 31.7801H9.55502L9.43728 26.7833L8.59484 31.7801H7.28516L8.37917 25.2428H10.3909L10.5129 28.9019L11.74 25.2428H13.9777L12.8956 31.7801ZM38.3814 29.4111C38.2351 29.3941 38.1702 29.3895 38.0697 29.3895C37.277 29.3895 36.8754 29.6615 36.8754 30.1985C36.8754 30.5295 37.0711 30.7403 37.3768 30.7403C37.9467 30.7403 38.3578 30.1975 38.3814 29.4111ZM39.3997 31.7801H38.2405L38.2667 31.229C37.9131 31.6645 37.4411 31.8715 36.8007 31.8715C36.0421 31.8715 35.5227 31.2792 35.5227 30.4192C35.5227 29.1252 36.4264 28.3702 37.979 28.3702C38.1375 28.3702 38.3406 28.3845 38.5486 28.411C38.592 28.2358 38.6034 28.1607 38.6034 28.0664C38.6034 27.714 38.3598 27.5826 37.7062 27.5826C37.0218 27.5749 36.4579 27.7457 36.2251 27.822C36.2398 27.7337 36.4196 26.626 36.4196 26.626C37.1169 26.4217 37.5764 26.3448 38.0933 26.3448C39.2952 26.3448 39.9315 26.8842 39.9304 27.9036C39.9327 28.1768 39.8875 28.5139 39.8169 28.9569C39.6962 29.7274 39.435 31.3777 39.3997 31.7801ZM23.5768 31.6993C23.1938 31.8199 22.8953 31.8715 22.5716 31.8715C21.8564 31.8715 21.466 31.4605 21.466 30.7036C21.4558 30.4689 21.5689 29.8508 21.6577 29.2866C21.7385 28.79 22.2644 25.6588 22.2644 25.6588H23.6551L23.4927 26.4636H24.3327L24.143 27.7412H23.2999C23.1384 28.7523 22.9084 30.0118 22.9057 30.1787C22.9057 30.4527 23.052 30.5723 23.3846 30.5723C23.544 30.5723 23.6675 30.5561 23.7619 30.5221L23.5768 31.6993ZM27.8407 31.6562C27.363 31.8022 26.902 31.8728 26.4135 31.8716C24.8568 31.8701 24.0452 31.057 24.0452 29.5001C24.0452 27.6827 25.0776 26.3449 26.4791 26.3449C27.6256 26.3449 28.358 27.0939 28.358 28.2687C28.358 28.6585 28.3077 29.039 28.1866 29.5762H25.4171C25.3235 30.3475 25.817 30.6687 26.6259 30.6687C27.1238 30.6687 27.5727 30.5661 28.072 30.334L27.8407 31.6562ZM27.0591 28.5044C27.0668 28.3936 27.2066 27.5555 26.412 27.5555C25.969 27.5555 25.6522 27.8932 25.5232 28.5044H27.0591ZM18.1982 28.1442C18.1982 28.8167 18.5242 29.2804 19.2637 29.6287C19.8303 29.8949 19.918 29.9739 19.918 30.2152C19.918 30.5467 19.6681 30.6962 19.1144 30.6962C18.6972 30.6962 18.3089 30.6311 17.861 30.4866C17.861 30.4866 17.677 31.6583 17.6686 31.7144C17.9867 31.7837 18.2703 31.848 19.1246 31.8716C20.6009 31.8716 21.2826 31.3095 21.2826 30.0947C21.2826 29.3642 20.9973 28.9355 20.2964 28.6133C19.7098 28.3441 19.6424 28.2839 19.6424 28.0357C19.6424 27.7482 19.8749 27.6016 20.3272 27.6016C20.6018 27.6016 20.9769 27.6309 21.3323 27.6815L21.5316 26.4484C21.1693 26.391 20.6201 26.3449 20.3003 26.3449C18.7351 26.3449 18.1934 27.1624 18.1982 28.1442ZM34.6457 26.4846C35.0343 26.4846 35.3966 26.5866 35.8958 26.8378L36.1247 25.419C35.9198 25.3386 35.1982 24.8662 34.5871 24.8662C33.6507 24.8662 32.8593 25.3307 32.3026 26.0975C31.4906 25.8286 31.1568 26.3721 30.7476 26.9136L30.3842 26.9982C30.4117 26.82 30.4366 26.6428 30.4282 26.4636H29.1433C28.9678 28.109 28.6566 29.7755 28.4131 31.4229L28.3496 31.7801H29.7493C29.983 30.2622 30.111 29.2902 30.1888 28.6325L30.7159 28.3393C30.7946 28.0464 31.0411 27.9474 31.5355 27.9594C31.469 28.3189 31.4358 28.6838 31.4362 29.0495C31.4362 30.7887 32.3747 31.8716 33.8808 31.8716C34.2688 31.8716 34.6018 31.8205 35.1172 31.6808L35.3636 30.1904C34.8998 30.4187 34.5192 30.5261 34.1746 30.5261C33.3613 30.5261 32.8691 29.9257 32.8691 28.9334C32.869 27.4939 33.6011 26.4846 34.6457 26.4846Z" fill="black"/>
<path d="M13.298 31.3916H11.8986L12.7006 26.3668L10.9111 31.3916H9.95751L9.83962 26.3955L8.99725 31.3916H7.6875L8.78151 24.8552H10.7932L10.8498 28.9017L12.207 24.8552H14.38L13.298 31.3916Z" fill="white"/>
<path d="M46.4892 25.2432L46.1791 27.1319C45.7964 26.6285 45.3855 26.2642 44.8428 26.2642C44.1368 26.2642 43.4943 26.7993 43.0737 27.587C42.488 27.4655 41.8821 27.2594 41.8821 27.2594L41.8818 27.2642C41.9291 26.8239 41.9479 26.5552 41.9437 26.464H40.6586C40.4836 28.1093 40.1725 29.7759 39.9293 31.4232L39.8652 31.7804H41.2647C41.4537 30.553 41.5985 29.5338 41.705 28.7255C42.1831 28.2935 42.4224 27.9166 42.9055 27.9417C42.6916 28.4591 42.5662 29.0548 42.5662 29.666C42.5662 30.9952 43.2387 31.8719 44.2559 31.8719C44.7685 31.8719 45.1619 31.6952 45.5457 31.2853L45.4802 31.7796H46.8036L47.8692 25.2432H46.4892ZM44.7395 30.5518C44.2632 30.5518 44.0228 30.1994 44.0228 29.5038C44.0228 28.459 44.473 27.7179 45.1078 27.7179C45.5884 27.7179 45.8487 28.0844 45.8487 28.7595C45.8488 29.8136 45.3914 30.5518 44.7395 30.5518Z" fill="black"/>
<path d="M16.742 29.0239C16.5954 29.0069 16.5305 29.0023 16.43 29.0023C15.637 29.0023 15.2358 29.2743 15.2358 29.8112C15.2358 30.1418 15.4318 30.3531 15.7369 30.3531C16.3073 30.353 16.7181 29.8104 16.742 29.0239ZM17.76 31.3919H16.6008L16.6272 30.8418C16.2739 31.2764 15.8015 31.4843 15.161 31.4843C14.4024 31.4843 13.8828 30.892 13.8828 30.032C13.8828 28.7374 14.7868 27.9828 16.3393 27.9828C16.4979 27.9828 16.7013 27.9972 16.9093 28.0238C16.9526 27.8485 16.964 27.7735 16.964 27.6786C16.964 27.3263 16.7205 27.1955 16.0668 27.1955C15.3821 27.1877 14.8179 27.3586 14.5858 27.434C14.6004 27.3459 14.7796 26.2394 14.7796 26.2394C15.4767 26.0342 15.937 25.9573 16.4539 25.9573C17.6556 25.9573 18.2922 26.497 18.291 27.5156C18.2931 27.7898 18.2476 28.1267 18.1773 28.5692C18.0562 29.3392 17.7953 30.9905 17.76 31.3919ZM36.5258 25.0315L36.2966 26.4507C35.7976 26.1997 35.4351 26.0974 35.0469 26.0974C34.0022 26.0974 33.2699 27.1066 33.2699 28.5461C33.2699 29.5383 33.7622 30.1385 34.5754 30.1385C34.92 30.1385 35.3002 30.0314 35.7639 29.8028L35.5183 31.2925C35.0026 31.4331 34.67 31.4843 34.2816 31.4843C32.7756 31.4843 31.837 30.4014 31.837 28.6621C31.837 26.3252 33.1335 24.6919 34.9879 24.6919C35.5987 24.692 36.3206 24.951 36.5258 25.0315ZM38.7831 29.0239C38.6366 29.0069 38.572 29.0023 38.4711 29.0023C37.6784 29.0023 37.2769 29.2743 37.2769 29.8112C37.2769 30.1418 37.4728 30.3531 37.7783 30.3531C38.3481 30.353 38.7592 29.8104 38.7831 29.0239ZM39.8011 31.3919H38.6416L38.6682 30.8418C38.3147 31.2764 37.8426 31.4843 37.2021 31.4843C36.4438 31.4843 35.9239 30.892 35.9239 30.032C35.9239 28.7374 36.8282 27.9828 38.3802 27.9828C38.539 27.9828 38.7421 27.9972 38.9503 28.0238C38.9934 27.8485 39.0051 27.7735 39.0051 27.6786C39.0051 27.3263 38.7615 27.1955 38.1079 27.1955C37.4235 27.1877 36.859 27.3586 36.6269 27.434C36.6415 27.3459 36.821 26.2394 36.821 26.2394C37.518 26.0342 37.978 25.9573 38.495 25.9573C39.697 25.9573 40.3332 26.497 40.3317 27.5156C40.3341 27.7898 40.289 28.1267 40.2183 28.5692C40.0976 29.3392 39.8361 30.9905 39.8011 31.3919ZM23.9783 31.3114C23.595 31.432 23.2965 31.4843 22.9731 31.4843C22.2578 31.4843 21.8675 31.0732 21.8675 30.3165C21.8576 30.081 21.9706 29.4635 22.0595 28.8994C22.1399 28.4022 22.6659 25.2714 22.6659 25.2714H24.0564L23.8942 26.0764H24.608L24.418 27.3535H23.7018C23.5403 28.3651 23.3096 29.6236 23.3073 29.7908C23.3073 30.0658 23.4539 30.1845 23.7862 30.1845C23.9456 30.1845 24.0689 30.1689 24.1634 30.1348L23.9783 31.3114ZM28.2423 31.269C27.7649 31.4149 27.3032 31.4853 26.815 31.4843C25.2582 31.4828 24.4467 30.6697 24.4467 29.1127C24.4467 27.2948 25.4791 25.9574 26.8806 25.9574C28.0271 25.9574 28.7594 26.7061 28.7594 27.8815C28.7594 28.2715 28.7092 28.652 28.5884 29.189H25.8189C25.7252 29.9601 26.2188 30.2818 27.0277 30.2818C27.5253 30.2818 27.9746 30.1788 28.4735 29.9461L28.2423 31.269ZM27.4603 28.1163C27.4687 28.0059 27.6081 27.1674 26.8132 27.1674C26.3705 27.1674 26.0537 27.506 25.9248 28.1163H27.4603ZM18.5994 27.757C18.5994 28.4294 18.9255 28.8925 19.665 29.2414C20.2315 29.5076 20.3192 29.5869 20.3192 29.828C20.3192 30.1594 20.0691 30.309 19.516 30.309C19.0984 30.309 18.7101 30.2438 18.2619 30.0993C18.2619 30.0993 18.0786 31.271 18.0702 31.327C18.3876 31.3965 18.6715 31.4599 19.5258 31.4843C21.0024 31.4843 21.6839 30.9223 21.6839 29.7077C21.6839 28.9768 21.3988 28.5482 20.6976 28.2261C20.1112 27.9563 20.0434 27.897 20.0434 27.6484C20.0434 27.3612 20.2764 27.2135 20.7284 27.2135C21.0027 27.2135 21.3778 27.2436 21.7338 27.2942L21.9327 26.0608C21.5708 26.0034 21.0216 25.9574 20.7017 25.9574C19.1363 25.9574 18.5949 26.7743 18.5994 27.757ZM47.2061 31.3919H45.8824L45.9482 30.8971C45.5643 31.3075 45.171 31.4843 44.6583 31.4843C43.6411 31.4843 42.9689 30.6075 42.9689 29.2784C42.9689 27.5101 44.0115 26.0195 45.2455 26.0195C45.7881 26.0195 46.1989 26.2412 46.5812 26.7443L46.8917 24.8555H48.2716L47.2061 31.3919ZM45.1423 30.1636C45.7938 30.1636 46.2515 29.4253 46.2515 28.3721C46.2515 27.6969 45.9909 27.3304 45.5103 27.3304C44.8757 27.3304 44.425 28.0711 44.425 29.1163C44.4249 29.8117 44.666 30.1636 45.1423 30.1636ZM41.0613 26.0764C40.8862 27.7217 40.575 29.3883 40.3317 31.0348L40.2677 31.3919H41.6671C42.1676 28.1414 42.2887 27.5066 43.0734 27.5862C43.1985 26.9209 43.4311 26.3382 43.6046 26.0441C43.0185 25.922 42.6913 26.2532 42.2629 26.8823C42.2967 26.6104 42.3587 26.3463 42.3464 26.0764H41.0613ZM29.5439 26.0764C29.3683 27.7217 29.0572 29.3883 28.814 31.0348L28.7503 31.3919H30.1503C30.6501 28.1414 30.771 27.5066 31.5553 27.5862C31.6809 26.9209 31.9137 26.3382 32.0865 26.0441C31.5011 25.922 31.1736 26.2532 30.7456 26.8823C30.7793 26.6104 30.8407 26.3463 30.829 26.0764H29.5439ZM47.8208 30.9758C47.8208 30.7451 48.0071 30.5594 48.2369 30.5594C48.4664 30.5592 48.6527 30.7451 48.6529 30.9747V30.9758C48.6529 31.2056 48.4666 31.3918 48.2369 31.3919C48.0071 31.3918 47.8209 31.2056 47.8208 30.9758ZM48.2369 31.292C48.4115 31.2921 48.553 31.1506 48.553 30.976V30.9759C48.5532 30.8012 48.4117 30.6596 48.2372 30.6594H48.2369C48.0621 30.6595 47.9204 30.8011 47.9203 30.9759C47.9206 31.1505 48.0622 31.292 48.2369 31.292ZM48.1806 31.1577H48.0953V30.7927H48.2499C48.282 30.7927 48.3151 30.7933 48.343 30.811C48.3729 30.8313 48.3899 30.866 48.3899 30.9024C48.3899 30.9437 48.3657 30.9823 48.3262 30.997L48.3937 31.1575H48.2991L48.2431 31.0134H48.1806V31.1575V31.1577ZM48.1806 30.951H48.2275C48.2451 30.951 48.2644 30.9523 48.2799 30.9438C48.2939 30.9348 48.3011 30.9179 48.3011 30.9016C48.3004 30.8866 48.2928 30.8726 48.2805 30.864C48.2658 30.8556 48.2415 30.8579 48.2257 30.8579H48.1805L48.1806 30.951Z" fill="white"/>
</g>
<defs>
<clipPath id="clip0_83_66">
<rect width="56" height="56" fill="white"/>
</clipPath>
</defs>
</svg>
