<svg width="56" height="56" viewBox="0 0 56 56" fill="none" xmlns="http://www.w3.org/2000/svg">
<g clip-path="url(#clip0_90_346)">
<path d="M56 10.0513H0V45.9487H56V10.0513Z" fill="#0E4595"/>
<path d="M21.0497 35.0885L23.4449 21.0339H27.2758L24.879 35.0885H21.0497ZM38.7191 21.3369C37.9603 21.0521 36.7708 20.7466 35.2858 20.7466C31.5004 20.7466 28.8339 22.6527 28.8113 25.3847C28.7898 27.4043 30.7149 28.5309 32.1679 29.2032C33.6591 29.8921 34.1603 30.3314 34.1533 30.9466C34.1439 31.8886 32.9625 32.3191 31.8614 32.3191C30.3281 32.3191 29.5135 32.106 28.2554 31.5813L27.7617 31.358L27.2241 34.5043C28.1188 34.8966 29.7735 35.2364 31.4914 35.254C35.5184 35.254 38.1324 33.3697 38.1623 30.4522C38.1766 28.8534 37.156 27.6367 34.9458 26.6336C33.6068 25.9835 32.7868 25.5496 32.7955 24.8913C32.7955 24.3071 33.4896 23.6823 34.9893 23.6823C36.2421 23.663 37.1496 23.9361 37.8567 24.2208L38.1999 24.3831L38.7191 21.3369ZM48.5773 21.0337H45.6171C44.7 21.0337 44.0137 21.284 43.611 22.1992L37.9217 35.0792H41.9445C41.9445 35.0792 42.6021 33.3473 42.7509 32.9671C43.1906 32.9671 47.0984 32.9732 47.6572 32.9732C47.7718 33.4652 48.1231 35.0792 48.1231 35.0792H51.678L48.5773 21.0333V21.0337ZM43.8806 30.1093C44.1974 29.2995 45.407 26.1804 45.407 26.1804C45.3843 26.2179 45.7214 25.3667 45.9149 24.839L46.1737 26.0509C46.1737 26.0509 46.9073 29.4058 47.0606 30.1093H43.8806ZM17.7975 21.0337L14.047 30.6183L13.6473 28.6705C12.9491 26.4253 10.7737 23.9927 8.3418 22.7749L11.7712 35.0661L15.8244 35.0615L21.8555 21.0335H17.7975" fill="white"/>
<path d="M10.5485 21.033H4.37116L4.32227 21.3254C9.12807 22.4888 12.308 25.3002 13.6283 28.6779L12.285 22.2193C12.0531 21.3294 11.3806 21.0638 10.5486 21.0327" fill="#F2AE14"/>
</g>
<defs>
<clipPath id="clip0_90_346">
<rect width="56" height="56" fill="white"/>
</clipPath>
</defs>
</svg>
