<svg xmlns="http://www.w3.org/2000/svg" shape-rendering="geometricPrecision" text-rendering="geometricPrecision" image-rendering="optimizeQuality" fill-rule="evenodd" clip-rule="evenodd" viewBox="0 0 512 511.999"><path fill-rule="nonzero" d="M0 256c0 70.684 28.658 134.695 74.981 181.018 46.324 46.324 110.335 74.981 181.019 74.981 70.691 0 134.695-28.657 181.019-74.981C483.342 390.695 512 326.691 512 256c0-70.692-28.658-134.695-74.981-181.019C390.695 28.657 326.691 0 256 0 185.316 0 121.305 28.657 74.981 74.981 28.658 121.305 0 185.308 0 256zm203.996-74.996c-16.956-29.411 6.608-43.961 23.788-27.542l95.915 84.234c15.318 15.311 15.318 21.289 0 36.607l-95.915 84.234c-17.26 16.304-40.686 2.087-23.788-27.549L248.544 256l-44.548-74.996zM101.009 410.991C61.352 371.334 36.81 316.518 36.81 256c0-60.526 24.542-115.334 64.199-154.991 39.657-39.658 94.473-64.2 154.991-64.2 60.526 0 115.334 24.542 154.991 64.2C450.648 140.666 475.19 195.474 475.19 256c0 60.525-24.542 115.334-64.199 154.991C371.334 450.648 316.526 475.19 256 475.19c-60.518 0-115.334-24.542-154.991-64.199z"/></svg>