<?xml version="1.0" ?><!DOCTYPE svg  PUBLIC '-//W3C//DTD SVG 1.1//EN'  'http://www.w3.org/Graphics/SVG/1.1/DTD/svg11.dtd'><svg enable-background="new 0 0 128 128" id="Слой_1" version="1.1" viewBox="0 0 128 128" xml:space="preserve" xmlns="http://www.w3.org/2000/svg" xmlns:xlink="http://www.w3.org/1999/xlink"><g><g><g><path d="M76.9,83.9c-2-2-5.1-2.4-7.5-0.9l-2.1,1.3l-6.2,4c-2.4,1.5-5.6,0.8-7.1-1.6l-9.8-15.4l-9.7-15.1     c-1.5-2.4-0.8-5.6,1.6-7.1l6.2-4l2.1-1.3c2.4-1.5,3.4-4.5,2.4-7.2L36,9c-1.2-3.2-5-4.7-8.1-3.2l-0.8,0.4l-8.7,4.1     c-5.6,2.7-8.9,8.5-8.3,14.6c1.2,12.3,5.8,34.5,19.5,55.8c13.6,21.3,32,35.1,42.7,41.3c5.3,3.1,12,2.5,16.8-1.4l7.4-6.1l0.6-0.5     c2.7-2.2,2.9-6.3,0.5-8.8L76.9,83.9z" fill="#9CD7D2"/></g><path d="M97.5,105.2L76.9,83.9c-0.3-0.3-0.6-0.5-0.9-0.8L91,98.6c2.4,2.5,2.2,6.5-0.5,8.8l-0.6,0.5    l-7.4,6.1c-4.7,3.9-11.5,4.5-16.8,1.4c-5.7-3.4-13.8-9-22.1-16.7C54.1,110,65,117.8,72.3,122c5.3,3.1,12,2.5,16.8-1.4l7.4-6.1    l0.6-0.5C99.8,111.7,100,107.7,97.5,105.2z" fill="#593055" opacity="0.2"/><path d="M37.8,37.3l-2.1,1.3l-6.2,4c-2.4,1.5-3.1,4.7-1.6,7.1l9.7,15.1l9.8,15.4    c0.9,1.4,2.3,2.2,3.9,2.3l-7.1-11.1l-9.7-15.1c-1.5-2.4-0.8-5.6,1.6-7.1l6.2-4l2.1-1.3c2.4-1.5,3.4-4.5,2.4-7.2L36,9    c-0.9-2.4-3.1-3.8-5.5-3.8l9.6,25C41.1,32.8,40.2,35.8,37.8,37.3z" fill="#593055" opacity="0.2"/><g><path d="M79.6,125.2L79.6,125.2c-2.8,0-5.6-0.7-8-2.2c-6.2-3.6-27.4-17.2-43.1-41.7C13.4,57.8,9.8,34.1,8.9,25     c-0.6-6.6,3-13,9-15.9l9.4-4.5c1-0.5,2-0.7,3.1-0.7c3,0,5.7,1.9,6.7,4.6l10.7,27.7c1.2,3.2,0,6.8-2.8,8.7l-8.3,5.3     c-1.8,1.2-2.3,3.6-1.2,5.4L55,86.1c0.7,1.1,1.9,1.8,3.3,1.8c0.7,0,1.5-0.2,2.1-0.6l8.3-5.3c1.2-0.7,2.5-1.1,3.9-1.1     c1.9,0,3.8,0.8,5.2,2.2l20.7,21.3c1.4,1.4,2.1,3.4,2,5.4c-0.1,2-1.1,3.9-2.6,5.2l-8,6.7C87,123.9,83.4,125.2,79.6,125.2z      M30.4,6.4c-0.7,0-1.4,0.2-2,0.5L19,11.3c-5.1,2.4-8.1,7.8-7.6,13.4c0.9,8.9,4.5,32.1,19.3,55.3c15.4,24,36.2,37.4,42.3,40.9     c2,1.2,4.4,1.8,6.7,1.8c3.1,0,6.2-1.1,8.6-3.1l8-6.7c1-0.9,1.6-2.1,1.7-3.4c0.1-1.3-0.4-2.6-1.3-3.5L76,84.7     c-0.9-0.9-2.1-1.4-3.4-1.4c-0.9,0-1.8,0.3-2.5,0.7l-8.3,5.3c-1,0.7-2.2,1-3.4,1c-2.2,0-4.2-1.1-5.4-2.9L33.4,57     c-0.9-1.4-1.2-3.1-0.9-4.8c0.4-1.7,1.4-3.1,2.8-4l8.3-5.3c1.9-1.2,2.7-3.6,1.9-5.7L34.9,9.4C34.1,7.6,32.4,6.4,30.4,6.4z" fill="#62355C"/></g><path d="M46.7,36.7L36,9c-1.2-3.2-5-4.7-8.1-3.2l-0.8,0.4l15.1,39.1l2.1-1.3    C46.7,42.3,47.7,39.3,46.7,36.7z" fill="#593055" opacity="0.2"/><g><path d="M42.2,46.5c-0.5,0-1-0.3-1.2-0.8L26,6.5c-0.2-0.6,0.1-1.4,0.7-1.6C27.3,4.7,28,5,28.3,5.6l15.1,39.1     c0.2,0.6-0.1,1.4-0.7,1.6C42.5,46.4,42.4,46.5,42.2,46.5z" fill="#62355C"/></g><path d="M76.9,83.9l20.7,21.3c2.4,2.5,2.2,6.5-0.5,8.8l-0.6,0.5L67.3,84.3l2.1-1.3    C71.7,81.5,74.9,81.8,76.9,83.9z" fill="#593055" opacity="0.2"/><g><path d="M96.4,115.7c-0.3,0-0.7-0.1-0.9-0.4L66.4,85.2c-0.5-0.5-0.5-1.3,0-1.8c0.5-0.5,1.3-0.5,1.8,0l29.2,30.1     c0.5,0.5,0.5,1.3,0,1.8C97.1,115.6,96.7,115.7,96.4,115.7z" fill="#62355C"/></g></g><g><g><g><path d="M117.9,34.2c-0.2,16.3-14,29.3-30.4,29.3H61.1c-1.5,0-2.6-1.2-2.6-2.6V34.4C58.5,18,71.4,4.3,87.8,4      C104.5,3.7,118.2,17.4,117.9,34.2z" fill="#EC7BB0"/></g></g><g><g><path d="M84.5,42.7c0.8,0,1.2,0.6,1.2,1.3s-0.4,1.4-1.2,1.4H70.2c-1.2,0-1.9-0.6-1.9-1.9c0-1.1,0.7-2.7,1.2-3.6      c1.1-2.2,3-4.1,5.9-6l2.2-1.4c3.1-2,4.4-3.2,4.4-5.6c0-2.3-1.9-3.8-4.9-3.8c-3.7,0-4.8,2.1-5.4,4.3c-0.2,0.7-0.8,1-1.4,1      c-0.2,0-0.3,0-0.5,0c-0.7-0.2-1.2-0.6-1.2-1.3c0-0.2,0-0.3,0.1-0.5c0.3-1.3,1-2.8,2.1-3.8c1.4-1.4,3.4-2.3,6.4-2.3      c4.8,0,7.8,2.5,7.8,6.4c0,3.8-2.4,5.5-5.3,7.3l-2.1,1.3c-3.5,2.2-5.5,4.3-6.2,7.1H84.5z" fill="#FFFFFF"/><path d="M84.5,46.7H70.2c-1.9,0-3.1-1.2-3.1-3.1c0-1.6,1-3.6,1.3-4.2c1.2-2.4,3.3-4.4,6.4-6.4l2.2-1.4      c3.1-2,3.8-2.9,3.8-4.5c0-2.3-2.8-2.5-3.6-2.5c-2.7,0-3.7,1.3-4.2,3.3c-0.3,1.2-1.3,1.9-2.6,1.9c-0.2,0-0.4,0-0.7-0.1      c-1.3-0.3-2.2-1.3-2.2-2.5c0-0.3,0-0.5,0.1-0.7c0.4-1.7,1.3-3.3,2.4-4.5c1.8-1.8,4.2-2.6,7.3-2.6c5.5,0,9,3,9,7.7      c0,4.7-3.2,6.7-5.8,8.4l-2.1,1.3c-2.6,1.6-4.2,3.1-5,4.7h11.1c1.4,0,2.4,1.1,2.4,2.6C86.9,45.5,85.9,46.7,84.5,46.7z M84.5,44.2      v1.2V44.2L84.5,44.2L84.5,44.2z M77.1,22c3.7,0,6.1,2,6.1,5c0,3.2-2,4.8-4.9,6.6L76.2,35c-2.7,1.8-4.5,3.5-5.5,5.5      c-0.5,0.9-1,2.2-1,3c0,0.5,0.1,0.6,0.6,0.6h14.1c0,0,0-0.1,0-0.2c0,0,0,0,0-0.1l-14.4,0l0.4-1.6c0.8-3,2.8-5.3,6.8-7.8l2.1-1.3      c2.8-1.8,4.6-3.1,4.6-6.2c0-3.3-2.4-5.2-6.5-5.2c-2.5,0-4.2,0.6-5.6,1.9c-0.8,0.8-1.4,2-1.7,3.2c0,0,0,0.1,0,0.2      c0,0,0.1,0,0.2,0.1c0,0,0.1,0,0.2,0c0.1,0,0.2,0,0.2,0C70.9,25.9,71.9,22,77.1,22z" fill="#FFFFFF"/></g><g><path d="M91.9,39.3c-1,0-1.7-0.6-1.7-1.7c0-1,0.3-1.6,1-2.5l9.5-13c0.8-1,1.3-1.5,2.6-1.5c1.1,0,1.8,0.5,1.8,1.8      v14.4h2.9c0.8,0,1.2,0.5,1.2,1.3c0,0.7-0.4,1.3-1.2,1.3H105v5c0,0.9-0.6,1.3-1.4,1.3s-1.4-0.4-1.4-1.3v-5H91.9z M94.2,35.4      c-0.3,0.5-0.8,0.9-1.2,1.4c0.7-0.1,1.4-0.1,2-0.1h7.2v-8c0-1.5,0.1-3.4,0.2-5.2c-0.7,1.2-1.4,2.3-2.4,3.7L94.2,35.4z" fill="#FFFFFF"/><path d="M103.6,46.8c-1.6,0-2.7-1-2.7-2.5v-3.8h-9c-1.8,0-3-1.2-3-2.9c0-1.4,0.4-2.2,1.2-3.3l9.5-13      c0.8-1.1,1.6-2,3.6-2c1.9,0,3,1.1,3,3v13.1h1.7c1.5,0,2.4,1,2.4,2.5c0,1.5-1,2.6-2.4,2.6h-1.7v3.8      C106.3,45.8,105.2,46.8,103.6,46.8z M103.4,44.3c0.1,0,0.3,0,0.3,0c0,0,0,0,0,0v-6.3h4.1c0,0,0,0,0-0.1l-4.1,0V22.4      c0-0.5,0-0.5-0.5-0.5c-0.7,0-0.9,0.1-1.6,1l-0.1,0.1l2.1,0.7c-0.2,1.7-0.2,3.6-0.2,5V38h-8.5c-0.5,0-1.2,0-1.9,0.1l-0.1,0h10.4      V44.3z M98.3,27.5l-6.1,8.3c0.4-0.4,0.7-0.8,1-1.1L98.3,27.5z M95.7,35.5h5.3v-6.8c0-0.2,0-0.4,0-0.6L95.7,35.5z" fill="#FFFFFF"/></g></g><g><g><path d="M87.5,64.7H61.1c-2.1,0-3.9-1.7-3.9-3.9V34.4C57.3,17.2,70.9,3,87.7,2.8l0.5,0c8.4,0,16.2,3.3,22.1,9.2      c5.9,6,9,13.8,8.9,22.2C118.9,51,104.7,64.7,87.5,64.7z M88.2,5.2l-0.4,0c-15.5,0.2-28,13.3-28,29.1v26.4c0,0.8,0.6,1.4,1.4,1.4      h26.4c15.8,0,28.9-12.6,29.1-28c0.1-7.7-2.8-14.9-8.2-20.4C103.1,8.3,95.9,5.2,88.2,5.2z" fill="#62355C"/></g></g></g></g></svg>